<svg xmlns="http://www.w3.org/2000/svg" viewBox="0 0 1200 680"><defs><linearGradient id="sky" x2="0" y2="1"><stop stop-color="#2a1810"/><stop offset=".35" stop-color="#5a3020"/><stop offset=".65" stop-color="#3a2418"/><stop offset="1" stop-color="#161008"/></linearGradient><radialGradient id="glow" cx="50%" cy="40%" r="38%"><stop stop-color="#ff9a3c" stop-opacity=".7"/><stop offset=".4" stop-color="#e86020" stop-opacity=".28"/><stop offset="1" stop-color="#e86020" stop-opacity="0"/></radialGradient><filter id="prop"><feDropShadow dx="0" dy="6" stdDeviation="4" flood-opacity=".4"/></filter></defs><rect width="1200" height="680" fill="url(#sky)"/><ellipse cx="200" cy="200" rx="90" ry="90" fill="#ff9a3c" opacity=".65"/><path d="M0 300L180 240 340 290 520 230 700 285 880 235 1060 280 1200 250V680H0Z" fill="#2a1a12"/><path d="M0 380Q220 350 450 375T900 360T1200 390V680H0Z" fill="#1e1410"/><path d="M0 470Q300 430 600 465T1200 455V680H0Z" fill="#161008"/><ellipse cx="600" cy="320" rx="260" ry="140" fill="url(#glow)"/><ellipse cx="380" cy="220" rx="28" ry="70" fill="#3a3028" opacity=".45"/><ellipse cx="820" cy="200" rx="32" ry="85" fill="#3a3028" opacity=".4"/><ellipse cx="500" cy="190" rx="22" ry="55" fill="#4a3830" opacity=".35"/><g filter="url(#prop)"><path d="M540 340L620 310 700 345 680 380 560 375Z" fill="#4a3020" stroke="#120c08" stroke-width="8"/><circle cx="570" cy="375" r="28" fill="none" stroke="#120c08" stroke-width="9"/><circle cx="670" cy="378" r="28" fill="none" stroke="#120c08" stroke-width="9"/><path d="M600 310L615 260" stroke="#3a2818" stroke-width="8" stroke-linecap="round"/></g><path d="M0 560Q400 540 800 555T1200 545V680H0Z" fill="#0e0a06" opacity=".75"/></svg>