<svg xmlns="http://www.w3.org/2000/svg" viewBox="0 0 900 800"><defs><linearGradient id="sky" x2="0" y2="1"><stop stop-color="#0e1a28"/><stop offset=".4" stop-color="#1a3040"/><stop offset=".7" stop-color="#163038"/><stop offset="1" stop-color="#0c181c"/></linearGradient><radialGradient id="glow" cx="50%" cy="48%" r="42%"><stop stop-color="#3ea6ff" stop-opacity=".55"/><stop offset=".4" stop-color="#2a8a7a" stop-opacity=".25"/><stop offset="1" stop-color="#2a8a7a" stop-opacity="0"/></radialGradient><filter id="prop"><feDropShadow dx="0" dy="6" stdDeviation="4" flood-opacity=".4"/></filter></defs><rect width="900" height="800" fill="url(#sky)"/><ellipse cx="120" cy="130" rx="36" ry="36" fill="#c8e0f0" opacity=".35"/><path d="M0 340L160 290 360 330 560 285 760 325 900 300V800H0Z" fill="#142830"/><path d="M0 420Q200 390 450 415T900 400V800H0Z" fill="#1a3840"/><path d="M0 480Q250 450 500 475T900 460V560Q650 580 450 565T0 580Z" fill="#1a4850" opacity=".85"/><ellipse cx="450" cy="420" rx="230" ry="110" fill="url(#glow)"/><g filter="url(#prop)"><path d="M340 450L560 435 580 480 320 495Z" fill="#4a3a28" stroke="#101008" stroke-width="8"/><path d="M380 445V420M450 440V415M520 438V418" stroke="#2a2018" stroke-width="7" stroke-linecap="round"/><ellipse cx="400" cy="490" rx="35" ry="10" fill="#0a2030" opacity=".5"/></g><path d="M0 680Q300 660 600 675T900 665V800H0Z" fill="#0a1418" opacity=".7"/></svg>