<svg xmlns="http://www.w3.org/2000/svg" viewBox="0 0 900 800"><defs><linearGradient id="sky" x2="0" y2="1"><stop stop-color="#2a2838"/><stop offset=".4" stop-color="#4a4858"/><stop offset=".7" stop-color="#3a3428"/><stop offset="1" stop-color="#1a1810"/></linearGradient><radialGradient id="glow" cx="50%" cy="44%" r="42%"><stop stop-color="#d4b080" stop-opacity=".45"/><stop offset=".45" stop-color="#8a7050" stop-opacity=".18"/><stop offset="1" stop-color="#8a7050" stop-opacity="0"/></radialGradient><filter id="prop"><feDropShadow dx="0" dy="6" stdDeviation="4" flood-opacity=".4"/></filter></defs><rect width="900" height="800" fill="url(#sky)"/><ellipse cx="760" cy="110" rx="44" ry="44" fill="#e0d0b0" opacity=".3"/><path d="M0 330H300L350 230H550L600 330H900V800H0Z" fill="#2a2830"/><path d="M0 430Q200 400 450 425T900 410V800H0Z" fill="#3a3428"/><path d="M0 530Q250 500 500 525T900 515V800H0Z" fill="#1a1810"/><ellipse cx="450" cy="390" rx="220" ry="120" fill="url(#glow)"/><ellipse cx="500" cy="270" rx="70" ry="35" fill="#8a7a60" opacity=".3"/><g filter="url(#prop)"><path d="M360 340L410 260 490 270 540 350 520 420 380 410Z" fill="#5a5040" stroke="#12100c" stroke-width="9"/><path d="M400 360L435 310 470 320 500 370" fill="none" stroke="#3a3020" stroke-width="6"/><path d="M560 420L610 260" stroke="#2a2010" stroke-width="8" stroke-linecap="round"/><path d="M575 400L625 395M585 370L635 365M595 340L645 335M605 310L655 305" stroke="#2a2010" stroke-width="5"/></g><path d="M0 680Q300 660 600 675T900 665V800H0Z" fill="#100e0a" opacity=".7"/></svg>